# xmcd
#
# Track frame offsets:
#	150
#	13070
#	25627
#	42425
#	58425
#	80817
#	94212
#	105985
#	118750
#	132507
#	150150
#	163060
#	176820
#	190460
#	208082
#	220745
#	233812
#	245925
#	259845
#	272060
#
# Disc length: 3863 seconds
#
# Revision: 1
# Processed by: cddbd v1.4PL0 Copyright (c) Steve Scherf et al.
# Submitted via: audiograbber 1.81.03
#
DISCID=290f1514
DTITLE=Various Artist - Western Beat - The Contemporary Country Collection
DYEAR=1992
DGENRE=Country
TTITLE0=Martin Delray/Johnny Cash - Get Rythm
TTITLE1=Steinar Albrigtsen - The Old Flame Burns
TTITLE2=Garth Brooks - The Thunder Rolls
TTITLE3=Tom Kell - The Girl With The Single Rose
TTITLE4=Emmylou Harris - Tougher Than The Rest
TTITLE5=Jim Lauderdale - Heaven's Flame
TTITLE6=The Mavericks - Hey Good Lookin'
TTITLE7=Jason - Already Burned
TTITLE8=Jennings, Nelson, Cash, Kristoffersen - Highwayman
TTITLE9=Kevin Welch and The Overtones - Sam's Town
TTITLE10=Alan Jackson - Don't Rock The Jukebox
TTITLE11=Tanya Tucker - Trail Of Tears
TTITLE12=Tom Russell Band - A Little Love
TTITLE13=Dwight Yokam w/k.d. lang - Sin City
TTITLE14=Mark Chesnutt/George Jones - Talking To Hank
TTITLE15=Suzy Boguss - Outbound Plane
TTITLE16=Travis Tritt/Marty Stuart - The Whiskey Ain't Working
TTITLE17=Clint Black - A Better Man
TTITLE18=Randy Travis - Heart Of Hearts
TTITLE19=Roy Orbison - California Blue
EXTD=
EXTT0=
EXTT1=
EXTT2=
EXTT3=
EXTT4=
EXTT5=
EXTT6=
EXTT7=
EXTT8=
EXTT9=
EXTT10=
EXTT11=
EXTT12=
EXTT13=
EXTT14=
EXTT15=
EXTT16=
EXTT17=
EXTT18=
EXTT19=
PLAYORDER=
